<svg width="513" height="513" viewBox="0 0 513 513" fill="none" xmlns="http://www.w3.org/2000/svg">
<path d="M247.316 91.1119L248.95 90.9258C261.597 89.4269 273.745 89.4269 285.727 90.8425L288.955 91.2389C293.256 91.7801 296.922 92.2907 297.791 92.4246C319.343 97.2629 336.536 103.717 349.928 112.183L350.972 112.851C355.98 116.097 356.233 117.353 351.732 116.764L350.714 116.623C342.014 115.475 325.033 115.272 318.426 116.239C296.377 119.403 272.497 128.813 255.19 141.053C242.144 150.249 226.833 166.247 218.033 179.785L216.296 182.482C210.124 192.128 208.478 195.565 204.435 205.835C197.363 223.988 194.534 236.894 193.868 254.547C192.37 292.85 204.435 327.24 229.314 355.8C246.537 375.452 270.75 390.357 294.713 395.936L295.511 396.11C300.021 397.067 307.216 398.146 317.095 399.35L312.193 396.725C298.384 389.298 288.833 383.855 283.542 380.395C270.252 371.707 260.545 363.935 254.42 357.081L256.267 356.807C281.984 352.936 301.615 347.476 315.16 340.427L316.419 339.765C336.328 329.189 345.14 319.273 353.373 308.588L355.453 305.923L359.613 308.171L377.502 318.413C379.925 319.799 382.655 321.338 385.421 322.883L389.968 325.41C394.263 327.786 398.281 329.975 400.966 331.403L403.251 332.579C406.893 334.463 409.702 335.969 411.678 337.096C407.476 345.735 403.379 352.747 399.385 358.132C387.819 373.62 370.18 389.69 355.203 398.434C326.331 415.17 300.038 422.581 268.919 422.664C239.548 422.664 214.669 416.752 189.541 403.763C147.523 382.03 117.319 344.393 106.253 299.845C99.5965 273.199 99.6797 242.057 106.503 216.16C111.765 196.392 117.578 183.403 129.844 164.462L132.005 161.144C138.041 151.92 140.394 149.255 150.601 138.805C169.822 119.32 194.451 104.332 219.412 97.0043L221.879 96.2664C224.052 95.6273 226.142 95.0345 227.176 94.7164L227.794 94.522C231.74 93.3157 238.7 92.1172 247.316 91.1119ZM309.274 130.145L310.073 129.889C317.113 127.682 339.589 121.866 366.747 132.258C385.607 139.474 398.642 150.299 405.853 164.732L367.933 191.18C366.754 189.758 365.527 188.158 364.251 186.382C347.693 163.899 320.174 146.216 297.209 142.802L294.084 142.335C288.442 141.472 287.64 141.187 287.64 140.47C287.64 139.582 293.298 136.584 299.708 133.821L300.331 133.554C300.851 133.333 301.375 133.114 301.901 132.897L302.532 132.64C304.847 131.701 307.168 130.834 309.274 130.145Z" fill="black"></path>
</svg>
